<?xml version="1.0" encoding="utf-8" standalone="no"?>
<!DOCTYPE svg PUBLIC "-//W3C//DTD SVG 1.1//EN"
  "http://www.w3.org/Graphics/SVG/1.1/DTD/svg11.dtd">
<svg xmlns:xlink="http://www.w3.org/1999/xlink" width="460.8pt" height="345.6pt" viewBox="0 0 460.8 345.6" xmlns="http://www.w3.org/2000/svg" version="1.1">
 <metadata>
  <rdf:RDF xmlns:dc="http://purl.org/dc/elements/1.1/" xmlns:cc="http://creativecommons.org/ns#" xmlns:rdf="http://www.w3.org/1999/02/22-rdf-syntax-ns#">
   <cc:Work>
    <dc:type rdf:resource="http://purl.org/dc/dcmitype/StillImage"/>
    <dc:date>2024-10-02T17:00:24.760375</dc:date>
    <dc:format>image/svg+xml</dc:format>
    <dc:creator>
     <cc:Agent>
      <dc:title>Matplotlib v3.9.0, https://matplotlib.org/</dc:title>
     </cc:Agent>
    </dc:creator>
   </cc:Work>
  </rdf:RDF>
 </metadata>
 <defs>
  <style type="text/css">*{stroke-linejoin: round; stroke-linecap: butt}</style>
 </defs>
 <g id="figure_1">
  <g id="patch_1">
   <path d="M 0 345.6 
L 460.8 345.6 
L 460.8 0 
L 0 0 
z
" style="fill: #ffffff"/>
  </g>
  <g id="axes_1">
   <g id="patch_2">
    <path d="M 57.6 307.584 
L 414.72 307.584 
L 414.72 41.472 
L 57.6 41.472 
z
" style="fill: #ffffff"/>
   </g>
   <g id="matplotlib.axis_1">
    <g id="xtick_1">
     <g id="line2d_1">
      <defs>
       <path id="m30e48855cb" d="M 0 0 
L 0 3.5 
" style="stroke: #000000; stroke-width: 0.8"/>
      </defs>
      <g>
       <use xlink:href="#m30e48855cb" x="108.617143" y="307.584" style="stroke: #000000; stroke-width: 0.8"/>
      </g>
     </g>
     <g id="text_1">
      <!-- $\mathdefault{10^{-1}}$ -->
      <g transform="translate(96.867143 322.182437) scale(0.1 -0.1)">
       <defs>
        <path id="DejaVuSans-31" d="M 794 531 
L 1825 531 
L 1825 4091 
L 703 3866 
L 703 4441 
L 1819 4666 
L 2450 4666 
L 2450 531 
L 3481 531 
L 3481 0 
L 794 0 
L 794 531 
z
" transform="scale(0.015625)"/>
        <path id="DejaVuSans-30" d="M 2034 4250 
Q 1547 4250 1301 3770 
Q 1056 3291 1056 2328 
Q 1056 1369 1301 889 
Q 1547 409 2034 409 
Q 2525 409 2770 889 
Q 3016 1369 3016 2328 
Q 3016 3291 2770 3770 
Q 2525 4250 2034 4250 
z
M 2034 4750 
Q 2819 4750 3233 4129 
Q 3647 3509 3647 2328 
Q 3647 1150 3233 529 
Q 2819 -91 2034 -91 
Q 1250 -91 836 529 
Q 422 1150 422 2328 
Q 422 3509 836 4129 
Q 1250 4750 2034 4750 
z
" transform="scale(0.015625)"/>
        <path id="DejaVuSans-2212" d="M 678 2272 
L 4684 2272 
L 4684 1741 
L 678 1741 
L 678 2272 
z
" transform="scale(0.015625)"/>
       </defs>
       <use xlink:href="#DejaVuSans-31" transform="translate(0 0.684375)"/>
       <use xlink:href="#DejaVuSans-30" transform="translate(63.623047 0.684375)"/>
       <use xlink:href="#DejaVuSans-2212" transform="translate(128.203125 38.965625) scale(0.7)"/>
       <use xlink:href="#DejaVuSans-31" transform="translate(186.855469 38.965625) scale(0.7)"/>
      </g>
     </g>
    </g>
    <g id="xtick_2">
     <g id="line2d_2">
      <g>
       <use xlink:href="#m30e48855cb" x="224.565195" y="307.584" style="stroke: #000000; stroke-width: 0.8"/>
      </g>
     </g>
     <g id="text_2">
      <!-- $\mathdefault{10^{0}}$ -->
      <g transform="translate(215.765195 322.182437) scale(0.1 -0.1)">
       <use xlink:href="#DejaVuSans-31" transform="translate(0 0.765625)"/>
       <use xlink:href="#DejaVuSans-30" transform="translate(63.623047 0.765625)"/>
       <use xlink:href="#DejaVuSans-30" transform="translate(128.203125 39.046875) scale(0.7)"/>
      </g>
     </g>
    </g>
    <g id="xtick_3">
     <g id="line2d_3">
      <g>
       <use xlink:href="#m30e48855cb" x="340.513247" y="307.584" style="stroke: #000000; stroke-width: 0.8"/>
      </g>
     </g>
     <g id="text_3">
      <!-- $\mathdefault{10^{1}}$ -->
      <g transform="translate(331.713247 322.182437) scale(0.1 -0.1)">
       <use xlink:href="#DejaVuSans-31" transform="translate(0 0.684375)"/>
       <use xlink:href="#DejaVuSans-30" transform="translate(63.623047 0.684375)"/>
       <use xlink:href="#DejaVuSans-31" transform="translate(128.203125 38.965625) scale(0.7)"/>
      </g>
     </g>
    </g>
    <g id="xtick_4">
     <g id="line2d_4">
      <defs>
       <path id="m80f7480260" d="M 0 0 
L 0 2 
" style="stroke: #000000; stroke-width: 0.6"/>
      </defs>
      <g>
       <use xlink:href="#m80f7480260" x="62.476774" y="307.584" style="stroke: #000000; stroke-width: 0.6"/>
      </g>
     </g>
    </g>
    <g id="xtick_5">
     <g id="line2d_5">
      <g>
       <use xlink:href="#m80f7480260" x="73.713301" y="307.584" style="stroke: #000000; stroke-width: 0.6"/>
      </g>
     </g>
    </g>
    <g id="xtick_6">
     <g id="line2d_6">
      <g>
       <use xlink:href="#m80f7480260" x="82.894213" y="307.584" style="stroke: #000000; stroke-width: 0.6"/>
      </g>
     </g>
    </g>
    <g id="xtick_7">
     <g id="line2d_7">
      <g>
       <use xlink:href="#m80f7480260" x="90.656562" y="307.584" style="stroke: #000000; stroke-width: 0.6"/>
      </g>
     </g>
    </g>
    <g id="xtick_8">
     <g id="line2d_8">
      <g>
       <use xlink:href="#m80f7480260" x="97.380616" y="307.584" style="stroke: #000000; stroke-width: 0.6"/>
      </g>
     </g>
    </g>
    <g id="xtick_9">
     <g id="line2d_9">
      <g>
       <use xlink:href="#m80f7480260" x="103.311651" y="307.584" style="stroke: #000000; stroke-width: 0.6"/>
      </g>
     </g>
    </g>
    <g id="xtick_10">
     <g id="line2d_10">
      <g>
       <use xlink:href="#m80f7480260" x="143.520984" y="307.584" style="stroke: #000000; stroke-width: 0.6"/>
      </g>
     </g>
    </g>
    <g id="xtick_11">
     <g id="line2d_11">
      <g>
       <use xlink:href="#m80f7480260" x="163.938423" y="307.584" style="stroke: #000000; stroke-width: 0.6"/>
      </g>
     </g>
    </g>
    <g id="xtick_12">
     <g id="line2d_12">
      <g>
       <use xlink:href="#m80f7480260" x="178.424826" y="307.584" style="stroke: #000000; stroke-width: 0.6"/>
      </g>
     </g>
    </g>
    <g id="xtick_13">
     <g id="line2d_13">
      <g>
       <use xlink:href="#m80f7480260" x="189.661353" y="307.584" style="stroke: #000000; stroke-width: 0.6"/>
      </g>
     </g>
    </g>
    <g id="xtick_14">
     <g id="line2d_14">
      <g>
       <use xlink:href="#m80f7480260" x="198.842264" y="307.584" style="stroke: #000000; stroke-width: 0.6"/>
      </g>
     </g>
    </g>
    <g id="xtick_15">
     <g id="line2d_15">
      <g>
       <use xlink:href="#m80f7480260" x="206.604614" y="307.584" style="stroke: #000000; stroke-width: 0.6"/>
      </g>
     </g>
    </g>
    <g id="xtick_16">
     <g id="line2d_16">
      <g>
       <use xlink:href="#m80f7480260" x="213.328668" y="307.584" style="stroke: #000000; stroke-width: 0.6"/>
      </g>
     </g>
    </g>
    <g id="xtick_17">
     <g id="line2d_17">
      <g>
       <use xlink:href="#m80f7480260" x="219.259703" y="307.584" style="stroke: #000000; stroke-width: 0.6"/>
      </g>
     </g>
    </g>
    <g id="xtick_18">
     <g id="line2d_18">
      <g>
       <use xlink:href="#m80f7480260" x="259.469036" y="307.584" style="stroke: #000000; stroke-width: 0.6"/>
      </g>
     </g>
    </g>
    <g id="xtick_19">
     <g id="line2d_19">
      <g>
       <use xlink:href="#m80f7480260" x="279.886475" y="307.584" style="stroke: #000000; stroke-width: 0.6"/>
      </g>
     </g>
    </g>
    <g id="xtick_20">
     <g id="line2d_20">
      <g>
       <use xlink:href="#m80f7480260" x="294.372878" y="307.584" style="stroke: #000000; stroke-width: 0.6"/>
      </g>
     </g>
    </g>
    <g id="xtick_21">
     <g id="line2d_21">
      <g>
       <use xlink:href="#m80f7480260" x="305.609405" y="307.584" style="stroke: #000000; stroke-width: 0.6"/>
      </g>
     </g>
    </g>
    <g id="xtick_22">
     <g id="line2d_22">
      <g>
       <use xlink:href="#m80f7480260" x="314.790316" y="307.584" style="stroke: #000000; stroke-width: 0.6"/>
      </g>
     </g>
    </g>
    <g id="xtick_23">
     <g id="line2d_23">
      <g>
       <use xlink:href="#m80f7480260" x="322.552666" y="307.584" style="stroke: #000000; stroke-width: 0.6"/>
      </g>
     </g>
    </g>
    <g id="xtick_24">
     <g id="line2d_24">
      <g>
       <use xlink:href="#m80f7480260" x="329.27672" y="307.584" style="stroke: #000000; stroke-width: 0.6"/>
      </g>
     </g>
    </g>
    <g id="xtick_25">
     <g id="line2d_25">
      <g>
       <use xlink:href="#m80f7480260" x="335.207755" y="307.584" style="stroke: #000000; stroke-width: 0.6"/>
      </g>
     </g>
    </g>
    <g id="xtick_26">
     <g id="line2d_26">
      <g>
       <use xlink:href="#m80f7480260" x="375.417088" y="307.584" style="stroke: #000000; stroke-width: 0.6"/>
      </g>
     </g>
    </g>
    <g id="xtick_27">
     <g id="line2d_27">
      <g>
       <use xlink:href="#m80f7480260" x="395.834527" y="307.584" style="stroke: #000000; stroke-width: 0.6"/>
      </g>
     </g>
    </g>
    <g id="xtick_28">
     <g id="line2d_28">
      <g>
       <use xlink:href="#m80f7480260" x="410.32093" y="307.584" style="stroke: #000000; stroke-width: 0.6"/>
      </g>
     </g>
    </g>
    <g id="text_4">
     <!-- waves per window j ($px^{-1}$) -->
     <g transform="translate(169.76 337.262125) scale(0.1 -0.1)">
      <defs>
       <path id="DejaVuSans-77" d="M 269 3500 
L 844 3500 
L 1563 769 
L 2278 3500 
L 2956 3500 
L 3675 769 
L 4391 3500 
L 4966 3500 
L 4050 0 
L 3372 0 
L 2619 2869 
L 1863 0 
L 1184 0 
L 269 3500 
z
" transform="scale(0.015625)"/>
       <path id="DejaVuSans-61" d="M 2194 1759 
Q 1497 1759 1228 1600 
Q 959 1441 959 1056 
Q 959 750 1161 570 
Q 1363 391 1709 391 
Q 2188 391 2477 730 
Q 2766 1069 2766 1631 
L 2766 1759 
L 2194 1759 
z
M 3341 1997 
L 3341 0 
L 2766 0 
L 2766 531 
Q 2569 213 2275 61 
Q 1981 -91 1556 -91 
Q 1019 -91 701 211 
Q 384 513 384 1019 
Q 384 1609 779 1909 
Q 1175 2209 1959 2209 
L 2766 2209 
L 2766 2266 
Q 2766 2663 2505 2880 
Q 2244 3097 1772 3097 
Q 1472 3097 1187 3025 
Q 903 2953 641 2809 
L 641 3341 
Q 956 3463 1253 3523 
Q 1550 3584 1831 3584 
Q 2591 3584 2966 3190 
Q 3341 2797 3341 1997 
z
" transform="scale(0.015625)"/>
       <path id="DejaVuSans-76" d="M 191 3500 
L 800 3500 
L 1894 563 
L 2988 3500 
L 3597 3500 
L 2284 0 
L 1503 0 
L 191 3500 
z
" transform="scale(0.015625)"/>
       <path id="DejaVuSans-65" d="M 3597 1894 
L 3597 1613 
L 953 1613 
Q 991 1019 1311 708 
Q 1631 397 2203 397 
Q 2534 397 2845 478 
Q 3156 559 3463 722 
L 3463 178 
Q 3153 47 2828 -22 
Q 2503 -91 2169 -91 
Q 1331 -91 842 396 
Q 353 884 353 1716 
Q 353 2575 817 3079 
Q 1281 3584 2069 3584 
Q 2775 3584 3186 3129 
Q 3597 2675 3597 1894 
z
M 3022 2063 
Q 3016 2534 2758 2815 
Q 2500 3097 2075 3097 
Q 1594 3097 1305 2825 
Q 1016 2553 972 2059 
L 3022 2063 
z
" transform="scale(0.015625)"/>
       <path id="DejaVuSans-73" d="M 2834 3397 
L 2834 2853 
Q 2591 2978 2328 3040 
Q 2066 3103 1784 3103 
Q 1356 3103 1142 2972 
Q 928 2841 928 2578 
Q 928 2378 1081 2264 
Q 1234 2150 1697 2047 
L 1894 2003 
Q 2506 1872 2764 1633 
Q 3022 1394 3022 966 
Q 3022 478 2636 193 
Q 2250 -91 1575 -91 
Q 1294 -91 989 -36 
Q 684 19 347 128 
L 347 722 
Q 666 556 975 473 
Q 1284 391 1588 391 
Q 1994 391 2212 530 
Q 2431 669 2431 922 
Q 2431 1156 2273 1281 
Q 2116 1406 1581 1522 
L 1381 1569 
Q 847 1681 609 1914 
Q 372 2147 372 2553 
Q 372 3047 722 3315 
Q 1072 3584 1716 3584 
Q 2034 3584 2315 3537 
Q 2597 3491 2834 3397 
z
" transform="scale(0.015625)"/>
       <path id="DejaVuSans-20" transform="scale(0.015625)"/>
       <path id="DejaVuSans-70" d="M 1159 525 
L 1159 -1331 
L 581 -1331 
L 581 3500 
L 1159 3500 
L 1159 2969 
Q 1341 3281 1617 3432 
Q 1894 3584 2278 3584 
Q 2916 3584 3314 3078 
Q 3713 2572 3713 1747 
Q 3713 922 3314 415 
Q 2916 -91 2278 -91 
Q 1894 -91 1617 61 
Q 1341 213 1159 525 
z
M 3116 1747 
Q 3116 2381 2855 2742 
Q 2594 3103 2138 3103 
Q 1681 3103 1420 2742 
Q 1159 2381 1159 1747 
Q 1159 1113 1420 752 
Q 1681 391 2138 391 
Q 2594 391 2855 752 
Q 3116 1113 3116 1747 
z
" transform="scale(0.015625)"/>
       <path id="DejaVuSans-72" d="M 2631 2963 
Q 2534 3019 2420 3045 
Q 2306 3072 2169 3072 
Q 1681 3072 1420 2755 
Q 1159 2438 1159 1844 
L 1159 0 
L 581 0 
L 581 3500 
L 1159 3500 
L 1159 2956 
Q 1341 3275 1631 3429 
Q 1922 3584 2338 3584 
Q 2397 3584 2469 3576 
Q 2541 3569 2628 3553 
L 2631 2963 
z
" transform="scale(0.015625)"/>
       <path id="DejaVuSans-69" d="M 603 3500 
L 1178 3500 
L 1178 0 
L 603 0 
L 603 3500 
z
M 603 4863 
L 1178 4863 
L 1178 4134 
L 603 4134 
L 603 4863 
z
" transform="scale(0.015625)"/>
       <path id="DejaVuSans-6e" d="M 3513 2113 
L 3513 0 
L 2938 0 
L 2938 2094 
Q 2938 2591 2744 2837 
Q 2550 3084 2163 3084 
Q 1697 3084 1428 2787 
Q 1159 2491 1159 1978 
L 1159 0 
L 581 0 
L 581 3500 
L 1159 3500 
L 1159 2956 
Q 1366 3272 1645 3428 
Q 1925 3584 2291 3584 
Q 2894 3584 3203 3211 
Q 3513 2838 3513 2113 
z
" transform="scale(0.015625)"/>
       <path id="DejaVuSans-64" d="M 2906 2969 
L 2906 4863 
L 3481 4863 
L 3481 0 
L 2906 0 
L 2906 525 
Q 2725 213 2448 61 
Q 2172 -91 1784 -91 
Q 1150 -91 751 415 
Q 353 922 353 1747 
Q 353 2572 751 3078 
Q 1150 3584 1784 3584 
Q 2172 3584 2448 3432 
Q 2725 3281 2906 2969 
z
M 947 1747 
Q 947 1113 1208 752 
Q 1469 391 1925 391 
Q 2381 391 2643 752 
Q 2906 1113 2906 1747 
Q 2906 2381 2643 2742 
Q 2381 3103 1925 3103 
Q 1469 3103 1208 2742 
Q 947 2381 947 1747 
z
" transform="scale(0.015625)"/>
       <path id="DejaVuSans-6f" d="M 1959 3097 
Q 1497 3097 1228 2736 
Q 959 2375 959 1747 
Q 959 1119 1226 758 
Q 1494 397 1959 397 
Q 2419 397 2687 759 
Q 2956 1122 2956 1747 
Q 2956 2369 2687 2733 
Q 2419 3097 1959 3097 
z
M 1959 3584 
Q 2709 3584 3137 3096 
Q 3566 2609 3566 1747 
Q 3566 888 3137 398 
Q 2709 -91 1959 -91 
Q 1206 -91 779 398 
Q 353 888 353 1747 
Q 353 2609 779 3096 
Q 1206 3584 1959 3584 
z
" transform="scale(0.015625)"/>
       <path id="DejaVuSans-6a" d="M 603 3500 
L 1178 3500 
L 1178 -63 
Q 1178 -731 923 -1031 
Q 669 -1331 103 -1331 
L -116 -1331 
L -116 -844 
L 38 -844 
Q 366 -844 484 -692 
Q 603 -541 603 -63 
L 603 3500 
z
M 603 4863 
L 1178 4863 
L 1178 4134 
L 603 4134 
L 603 4863 
z
" transform="scale(0.015625)"/>
       <path id="DejaVuSans-28" d="M 1984 4856 
Q 1566 4138 1362 3434 
Q 1159 2731 1159 2009 
Q 1159 1288 1364 580 
Q 1569 -128 1984 -844 
L 1484 -844 
Q 1016 -109 783 600 
Q 550 1309 550 2009 
Q 550 2706 781 3412 
Q 1013 4119 1484 4856 
L 1984 4856 
z
" transform="scale(0.015625)"/>
       <path id="DejaVuSans-Oblique-70" d="M 3175 2156 
Q 3175 2616 2975 2859 
Q 2775 3103 2400 3103 
Q 2144 3103 1911 2972 
Q 1678 2841 1497 2591 
Q 1319 2344 1212 1994 
Q 1106 1644 1106 1300 
Q 1106 863 1306 627 
Q 1506 391 1875 391 
Q 2147 391 2380 519 
Q 2613 647 2778 891 
Q 2956 1147 3065 1494 
Q 3175 1841 3175 2156 
z
M 1394 2969 
Q 1625 3272 1939 3428 
Q 2253 3584 2638 3584 
Q 3175 3584 3472 3232 
Q 3769 2881 3769 2247 
Q 3769 1728 3584 1258 
Q 3400 788 3053 416 
Q 2822 169 2531 39 
Q 2241 -91 1919 -91 
Q 1547 -91 1294 64 
Q 1041 219 916 525 
L 556 -1331 
L -19 -1331 
L 922 3500 
L 1497 3500 
L 1394 2969 
z
" transform="scale(0.015625)"/>
       <path id="DejaVuSans-Oblique-78" d="M 3841 3500 
L 2234 1784 
L 3219 0 
L 2559 0 
L 1819 1388 
L 531 0 
L -166 0 
L 1556 1844 
L 641 3500 
L 1300 3500 
L 1972 2234 
L 3144 3500 
L 3841 3500 
z
" transform="scale(0.015625)"/>
       <path id="DejaVuSans-29" d="M 513 4856 
L 1013 4856 
Q 1481 4119 1714 3412 
Q 1947 2706 1947 2009 
Q 1947 1309 1714 600 
Q 1481 -109 1013 -844 
L 513 -844 
Q 928 -128 1133 580 
Q 1338 1288 1338 2009 
Q 1338 2731 1133 3434 
Q 928 4138 513 4856 
z
" transform="scale(0.015625)"/>
      </defs>
      <use xlink:href="#DejaVuSans-77" transform="translate(0 0.684375)"/>
      <use xlink:href="#DejaVuSans-61" transform="translate(81.787109 0.684375)"/>
      <use xlink:href="#DejaVuSans-76" transform="translate(143.066406 0.684375)"/>
      <use xlink:href="#DejaVuSans-65" transform="translate(202.246094 0.684375)"/>
      <use xlink:href="#DejaVuSans-73" transform="translate(263.769531 0.684375)"/>
      <use xlink:href="#DejaVuSans-20" transform="translate(315.869141 0.684375)"/>
      <use xlink:href="#DejaVuSans-70" transform="translate(347.65625 0.684375)"/>
      <use xlink:href="#DejaVuSans-65" transform="translate(411.132812 0.684375)"/>
      <use xlink:href="#DejaVuSans-72" transform="translate(472.65625 0.684375)"/>
      <use xlink:href="#DejaVuSans-20" transform="translate(513.769531 0.684375)"/>
      <use xlink:href="#DejaVuSans-77" transform="translate(545.556641 0.684375)"/>
      <use xlink:href="#DejaVuSans-69" transform="translate(627.34375 0.684375)"/>
      <use xlink:href="#DejaVuSans-6e" transform="translate(655.126953 0.684375)"/>
      <use xlink:href="#DejaVuSans-64" transform="translate(718.505859 0.684375)"/>
      <use xlink:href="#DejaVuSans-6f" transform="translate(781.982422 0.684375)"/>
      <use xlink:href="#DejaVuSans-77" transform="translate(843.164062 0.684375)"/>
      <use xlink:href="#DejaVuSans-20" transform="translate(924.951172 0.684375)"/>
      <use xlink:href="#DejaVuSans-6a" transform="translate(956.738281 0.684375)"/>
      <use xlink:href="#DejaVuSans-20" transform="translate(984.521484 0.684375)"/>
      <use xlink:href="#DejaVuSans-28" transform="translate(1016.308594 0.684375)"/>
      <use xlink:href="#DejaVuSans-Oblique-70" transform="translate(1055.322266 0.684375)"/>
      <use xlink:href="#DejaVuSans-Oblique-78" transform="translate(1118.798828 0.684375)"/>
      <use xlink:href="#DejaVuSans-2212" transform="translate(1182.444661 38.965625) scale(0.7)"/>
      <use xlink:href="#DejaVuSans-31" transform="translate(1241.097005 38.965625) scale(0.7)"/>
      <use xlink:href="#DejaVuSans-29" transform="translate(1288.367513 0.684375)"/>
     </g>
    </g>
   </g>
   <g id="matplotlib.axis_2">
    <g id="ytick_1">
     <g id="line2d_29">
      <defs>
       <path id="m6ab4c5a9a0" d="M 0 0 
L -3.5 0 
" style="stroke: #000000; stroke-width: 0.8"/>
      </defs>
      <g>
       <use xlink:href="#m6ab4c5a9a0" x="57.6" y="301.840135" style="stroke: #000000; stroke-width: 0.8"/>
      </g>
     </g>
     <g id="text_5">
      <!-- 0 -->
      <g transform="translate(44.2375 305.639353) scale(0.1 -0.1)">
       <use xlink:href="#DejaVuSans-30"/>
      </g>
     </g>
    </g>
    <g id="ytick_2">
     <g id="line2d_30">
      <g>
       <use xlink:href="#m6ab4c5a9a0" x="57.6" y="254.00144" style="stroke: #000000; stroke-width: 0.8"/>
      </g>
     </g>
     <g id="text_6">
      <!-- 5 -->
      <g transform="translate(44.2375 257.800659) scale(0.1 -0.1)">
       <defs>
        <path id="DejaVuSans-35" d="M 691 4666 
L 3169 4666 
L 3169 4134 
L 1269 4134 
L 1269 2991 
Q 1406 3038 1543 3061 
Q 1681 3084 1819 3084 
Q 2600 3084 3056 2656 
Q 3513 2228 3513 1497 
Q 3513 744 3044 326 
Q 2575 -91 1722 -91 
Q 1428 -91 1123 -41 
Q 819 9 494 109 
L 494 744 
Q 775 591 1075 516 
Q 1375 441 1709 441 
Q 2250 441 2565 725 
Q 2881 1009 2881 1497 
Q 2881 1984 2565 2268 
Q 2250 2553 1709 2553 
Q 1456 2553 1204 2497 
Q 953 2441 691 2322 
L 691 4666 
z
" transform="scale(0.015625)"/>
       </defs>
       <use xlink:href="#DejaVuSans-35"/>
      </g>
     </g>
    </g>
    <g id="ytick_3">
     <g id="line2d_31">
      <g>
       <use xlink:href="#m6ab4c5a9a0" x="57.6" y="206.162745" style="stroke: #000000; stroke-width: 0.8"/>
      </g>
     </g>
     <g id="text_7">
      <!-- 10 -->
      <g transform="translate(37.875 209.961964) scale(0.1 -0.1)">
       <use xlink:href="#DejaVuSans-31"/>
       <use xlink:href="#DejaVuSans-30" x="63.623047"/>
      </g>
     </g>
    </g>
    <g id="ytick_4">
     <g id="line2d_32">
      <g>
       <use xlink:href="#m6ab4c5a9a0" x="57.6" y="158.324051" style="stroke: #000000; stroke-width: 0.8"/>
      </g>
     </g>
     <g id="text_8">
      <!-- 15 -->
      <g transform="translate(37.875 162.12327) scale(0.1 -0.1)">
       <use xlink:href="#DejaVuSans-31"/>
       <use xlink:href="#DejaVuSans-35" x="63.623047"/>
      </g>
     </g>
    </g>
    <g id="ytick_5">
     <g id="line2d_33">
      <g>
       <use xlink:href="#m6ab4c5a9a0" x="57.6" y="110.485356" style="stroke: #000000; stroke-width: 0.8"/>
      </g>
     </g>
     <g id="text_9">
      <!-- 20 -->
      <g transform="translate(37.875 114.284575) scale(0.1 -0.1)">
       <defs>
        <path id="DejaVuSans-32" d="M 1228 531 
L 3431 531 
L 3431 0 
L 469 0 
L 469 531 
Q 828 903 1448 1529 
Q 2069 2156 2228 2338 
Q 2531 2678 2651 2914 
Q 2772 3150 2772 3378 
Q 2772 3750 2511 3984 
Q 2250 4219 1831 4219 
Q 1534 4219 1204 4116 
Q 875 4013 500 3803 
L 500 4441 
Q 881 4594 1212 4672 
Q 1544 4750 1819 4750 
Q 2544 4750 2975 4387 
Q 3406 4025 3406 3419 
Q 3406 3131 3298 2873 
Q 3191 2616 2906 2266 
Q 2828 2175 2409 1742 
Q 1991 1309 1228 531 
z
" transform="scale(0.015625)"/>
       </defs>
       <use xlink:href="#DejaVuSans-32"/>
       <use xlink:href="#DejaVuSans-30" x="63.623047"/>
      </g>
     </g>
    </g>
    <g id="ytick_6">
     <g id="line2d_34">
      <g>
       <use xlink:href="#m6ab4c5a9a0" x="57.6" y="62.646662" style="stroke: #000000; stroke-width: 0.8"/>
      </g>
     </g>
     <g id="text_10">
      <!-- 25 -->
      <g transform="translate(37.875 66.44588) scale(0.1 -0.1)">
       <use xlink:href="#DejaVuSans-32"/>
       <use xlink:href="#DejaVuSans-35" x="63.623047"/>
      </g>
     </g>
    </g>
    <g id="text_11">
     <!-- σ(°) -->
     <g transform="translate(31.795313 184.098312) rotate(-90) scale(0.1 -0.1)">
      <defs>
       <path id="DejaVuSans-3c3" d="M 1959 3044 
Q 1484 3044 1228 2700 
Q 959 2341 959 1747 
Q 959 1119 1226 758 
Q 1494 397 1959 397 
Q 2419 397 2687 759 
Q 2956 1122 2956 1747 
Q 2956 2319 2688 2700 
Q 2441 3044 1959 3044 
z
M 1959 3500 
L 3869 3500 
L 3869 2925 
L 3225 2925 
Q 3566 2438 3566 1747 
Q 3566 888 3138 400 
Q 2709 -91 1959 -91 
Q 1206 -91 781 400 
Q 353 888 353 1747 
Q 353 2613 781 3097 
Q 1134 3500 1959 3500 
z
" transform="scale(0.015625)"/>
       <path id="DejaVuSans-b0" d="M 1600 4347 
Q 1350 4347 1178 4173 
Q 1006 4000 1006 3750 
Q 1006 3503 1178 3333 
Q 1350 3163 1600 3163 
Q 1850 3163 2022 3333 
Q 2194 3503 2194 3750 
Q 2194 3997 2020 4172 
Q 1847 4347 1600 4347 
z
M 1600 4750 
Q 1800 4750 1984 4673 
Q 2169 4597 2303 4453 
Q 2447 4313 2519 4134 
Q 2591 3956 2591 3750 
Q 2591 3338 2302 3052 
Q 2013 2766 1594 2766 
Q 1172 2766 890 3047 
Q 609 3328 609 3750 
Q 609 4169 896 4459 
Q 1184 4750 1600 4750 
z
" transform="scale(0.015625)"/>
      </defs>
      <use xlink:href="#DejaVuSans-3c3"/>
      <use xlink:href="#DejaVuSans-28" x="63.378906"/>
      <use xlink:href="#DejaVuSans-b0" x="102.392578"/>
      <use xlink:href="#DejaVuSans-29" x="152.392578"/>
     </g>
    </g>
   </g>
   <g id="LineCollection_1">
    <path d="M 305.412318 277.958146 
L 305.412318 276.272406 
" clip-path="url(#p23d60bf4fa)" style="fill: none; stroke: #1f77b4; stroke-width: 1.5"/>
    <path d="M 215.187197 208.422354 
L 215.187197 117.803464 
" clip-path="url(#p23d60bf4fa)" style="fill: none; stroke: #1f77b4; stroke-width: 1.5"/>
    <path d="M 184.664865 183.914994 
L 184.664865 90.281599 
" clip-path="url(#p23d60bf4fa)" style="fill: none; stroke: #1f77b4; stroke-width: 1.5"/>
    <path d="M 165.796952 164.943126 
L 165.796952 67.128238 
" clip-path="url(#p23d60bf4fa)" style="fill: none; stroke: #1f77b4; stroke-width: 1.5"/>
    <path d="M 152.103567 133.365288 
L 152.103567 58.049034 
" clip-path="url(#p23d60bf4fa)" style="fill: none; stroke: #1f77b4; stroke-width: 1.5"/>
    <path d="M 141.348915 118.204068 
L 141.348915 56.167173 
" clip-path="url(#p23d60bf4fa)" style="fill: none; stroke: #1f77b4; stroke-width: 1.5"/>
    <path d="M 132.491835 103.186607 
L 132.491835 57.157732 
" clip-path="url(#p23d60bf4fa)" style="fill: none; stroke: #1f77b4; stroke-width: 1.5"/>
    <path d="M 124.962075 90.435959 
L 124.962075 60.764657 
" clip-path="url(#p23d60bf4fa)" style="fill: none; stroke: #1f77b4; stroke-width: 1.5"/>
    <path d="M 118.413172 83.642085 
L 118.413172 63.530896 
" clip-path="url(#p23d60bf4fa)" style="fill: none; stroke: #1f77b4; stroke-width: 1.5"/>
    <path d="M 112.618787 82.159527 
L 112.618787 63.995852 
" clip-path="url(#p23d60bf4fa)" style="fill: none; stroke: #1f77b4; stroke-width: 1.5"/>
    <path d="M 107.422883 81.864844 
L 107.422883 63.3151 
" clip-path="url(#p23d60bf4fa)" style="fill: none; stroke: #1f77b4; stroke-width: 1.5"/>
    <path d="M 102.713322 83.611569 
L 102.713322 62.512142 
" clip-path="url(#p23d60bf4fa)" style="fill: none; stroke: #1f77b4; stroke-width: 1.5"/>
    <path d="M 98.406802 82.67096 
L 98.406802 62.579778 
" clip-path="url(#p23d60bf4fa)" style="fill: none; stroke: #1f77b4; stroke-width: 1.5"/>
    <path d="M 94.439744 83.606744 
L 94.439744 62.791931 
" clip-path="url(#p23d60bf4fa)" style="fill: none; stroke: #1f77b4; stroke-width: 1.5"/>
    <path d="M 90.762519 83.960853 
L 90.762519 62.031056 
" clip-path="url(#p23d60bf4fa)" style="fill: none; stroke: #1f77b4; stroke-width: 1.5"/>
    <path d="M 87.335646 85.317619 
L 87.335646 61.839523 
" clip-path="url(#p23d60bf4fa)" style="fill: none; stroke: #1f77b4; stroke-width: 1.5"/>
    <path d="M 84.127198 85.812881 
L 84.127198 61.528529 
" clip-path="url(#p23d60bf4fa)" style="fill: none; stroke: #1f77b4; stroke-width: 1.5"/>
    <path d="M 81.110992 86.953885 
L 81.110992 63.479756 
" clip-path="url(#p23d60bf4fa)" style="fill: none; stroke: #1f77b4; stroke-width: 1.5"/>
    <path d="M 78.265285 87.98857 
L 78.265285 63.658327 
" clip-path="url(#p23d60bf4fa)" style="fill: none; stroke: #1f77b4; stroke-width: 1.5"/>
    <path d="M 75.571831 86.299649 
L 75.571831 62.554176 
" clip-path="url(#p23d60bf4fa)" style="fill: none; stroke: #1f77b4; stroke-width: 1.5"/>
   </g>
   <g id="LineCollection_2">
    <path d="M 324.832584 285.025235 
L 324.832584 284.267643 
" clip-path="url(#p23d60bf4fa)" style="fill: none; stroke: #ff7f0e; stroke-width: 1.5"/>
    <path d="M 234.607462 213.086687 
L 234.607462 185.617792 
" clip-path="url(#p23d60bf4fa)" style="fill: none; stroke: #ff7f0e; stroke-width: 1.5"/>
    <path d="M 204.085131 202.947966 
L 204.085131 106.523967 
" clip-path="url(#p23d60bf4fa)" style="fill: none; stroke: #ff7f0e; stroke-width: 1.5"/>
    <path d="M 185.217217 182.042605 
L 185.217217 80.688719 
" clip-path="url(#p23d60bf4fa)" style="fill: none; stroke: #ff7f0e; stroke-width: 1.5"/>
    <path d="M 171.523832 152.558255 
L 171.523832 64.670951 
" clip-path="url(#p23d60bf4fa)" style="fill: none; stroke: #ff7f0e; stroke-width: 1.5"/>
    <path d="M 160.76918 129.560786 
L 160.76918 60.171166 
" clip-path="url(#p23d60bf4fa)" style="fill: none; stroke: #ff7f0e; stroke-width: 1.5"/>
    <path d="M 151.912101 118.853324 
L 151.912101 56.655537 
" clip-path="url(#p23d60bf4fa)" style="fill: none; stroke: #ff7f0e; stroke-width: 1.5"/>
    <path d="M 144.382341 104.722551 
L 144.382341 56.326892 
" clip-path="url(#p23d60bf4fa)" style="fill: none; stroke: #ff7f0e; stroke-width: 1.5"/>
    <path d="M 137.833437 91.523931 
L 137.833437 59.111361 
" clip-path="url(#p23d60bf4fa)" style="fill: none; stroke: #ff7f0e; stroke-width: 1.5"/>
    <path d="M 132.039052 85.828444 
L 132.039052 59.349343 
" clip-path="url(#p23d60bf4fa)" style="fill: none; stroke: #ff7f0e; stroke-width: 1.5"/>
    <path d="M 126.843148 83.626361 
L 126.843148 59.661775 
" clip-path="url(#p23d60bf4fa)" style="fill: none; stroke: #ff7f0e; stroke-width: 1.5"/>
    <path d="M 122.133588 89.708685 
L 122.133588 53.568 
" clip-path="url(#p23d60bf4fa)" style="fill: none; stroke: #ff7f0e; stroke-width: 1.5"/>
    <path d="M 117.827067 88.310794 
L 117.827067 53.874716 
" clip-path="url(#p23d60bf4fa)" style="fill: none; stroke: #ff7f0e; stroke-width: 1.5"/>
    <path d="M 113.860009 81.926325 
L 113.860009 59.15333 
" clip-path="url(#p23d60bf4fa)" style="fill: none; stroke: #ff7f0e; stroke-width: 1.5"/>
    <path d="M 110.182785 82.799641 
L 110.182785 58.667557 
" clip-path="url(#p23d60bf4fa)" style="fill: none; stroke: #ff7f0e; stroke-width: 1.5"/>
    <path d="M 106.755912 80.525053 
L 106.755912 61.316196 
" clip-path="url(#p23d60bf4fa)" style="fill: none; stroke: #ff7f0e; stroke-width: 1.5"/>
    <path d="M 103.547464 81.111902 
L 103.547464 61.293128 
" clip-path="url(#p23d60bf4fa)" style="fill: none; stroke: #ff7f0e; stroke-width: 1.5"/>
    <path d="M 100.531257 81.252925 
L 100.531257 61.410551 
" clip-path="url(#p23d60bf4fa)" style="fill: none; stroke: #ff7f0e; stroke-width: 1.5"/>
    <path d="M 97.685551 81.966798 
L 97.685551 61.604711 
" clip-path="url(#p23d60bf4fa)" style="fill: none; stroke: #ff7f0e; stroke-width: 1.5"/>
    <path d="M 94.992096 82.708729 
L 94.992096 62.304872 
" clip-path="url(#p23d60bf4fa)" style="fill: none; stroke: #ff7f0e; stroke-width: 1.5"/>
   </g>
   <g id="LineCollection_3">
    <path d="M 339.820042 288.858395 
L 339.820042 288.037689 
" clip-path="url(#p23d60bf4fa)" style="fill: none; stroke: #2ca02c; stroke-width: 1.5"/>
    <path d="M 249.59492 246.259565 
L 249.59492 220.359715 
" clip-path="url(#p23d60bf4fa)" style="fill: none; stroke: #2ca02c; stroke-width: 1.5"/>
    <path d="M 219.072589 212.056785 
L 219.072589 121.884719 
" clip-path="url(#p23d60bf4fa)" style="fill: none; stroke: #2ca02c; stroke-width: 1.5"/>
    <path d="M 200.204675 196.230952 
L 200.204675 107.535519 
" clip-path="url(#p23d60bf4fa)" style="fill: none; stroke: #2ca02c; stroke-width: 1.5"/>
    <path d="M 186.51129 184.019551 
L 186.51129 89.895866 
" clip-path="url(#p23d60bf4fa)" style="fill: none; stroke: #2ca02c; stroke-width: 1.5"/>
    <path d="M 175.756638 173.664488 
L 175.756638 76.365534 
" clip-path="url(#p23d60bf4fa)" style="fill: none; stroke: #2ca02c; stroke-width: 1.5"/>
    <path d="M 166.899559 153.535269 
L 166.899559 63.097442 
" clip-path="url(#p23d60bf4fa)" style="fill: none; stroke: #2ca02c; stroke-width: 1.5"/>
    <path d="M 159.369799 130.066068 
L 159.369799 59.645653 
" clip-path="url(#p23d60bf4fa)" style="fill: none; stroke: #2ca02c; stroke-width: 1.5"/>
    <path d="M 152.820895 121.681132 
L 152.820895 58.444663 
" clip-path="url(#p23d60bf4fa)" style="fill: none; stroke: #2ca02c; stroke-width: 1.5"/>
    <path d="M 147.02651 109.936787 
L 147.02651 57.943511 
" clip-path="url(#p23d60bf4fa)" style="fill: none; stroke: #2ca02c; stroke-width: 1.5"/>
    <path d="M 141.830606 96.905127 
L 141.830606 60.017811 
" clip-path="url(#p23d60bf4fa)" style="fill: none; stroke: #2ca02c; stroke-width: 1.5"/>
    <path d="M 137.121046 85.174613 
L 137.121046 64.39954 
" clip-path="url(#p23d60bf4fa)" style="fill: none; stroke: #2ca02c; stroke-width: 1.5"/>
    <path d="M 132.814525 80.748961 
L 132.814525 64.369602 
" clip-path="url(#p23d60bf4fa)" style="fill: none; stroke: #2ca02c; stroke-width: 1.5"/>
    <path d="M 128.847467 79.014657 
L 128.847467 64.596582 
" clip-path="url(#p23d60bf4fa)" style="fill: none; stroke: #2ca02c; stroke-width: 1.5"/>
    <path d="M 125.170243 77.953875 
L 125.170243 63.704186 
" clip-path="url(#p23d60bf4fa)" style="fill: none; stroke: #2ca02c; stroke-width: 1.5"/>
    <path d="M 121.74337 77.990343 
L 121.74337 62.925625 
" clip-path="url(#p23d60bf4fa)" style="fill: none; stroke: #2ca02c; stroke-width: 1.5"/>
    <path d="M 118.534922 77.646739 
L 118.534922 62.043897 
" clip-path="url(#p23d60bf4fa)" style="fill: none; stroke: #2ca02c; stroke-width: 1.5"/>
    <path d="M 115.518715 78.145176 
L 115.518715 62.35306 
" clip-path="url(#p23d60bf4fa)" style="fill: none; stroke: #2ca02c; stroke-width: 1.5"/>
    <path d="M 112.673009 78.18598 
L 112.673009 61.775475 
" clip-path="url(#p23d60bf4fa)" style="fill: none; stroke: #2ca02c; stroke-width: 1.5"/>
    <path d="M 109.979554 78.423274 
L 109.979554 62.148805 
" clip-path="url(#p23d60bf4fa)" style="fill: none; stroke: #2ca02c; stroke-width: 1.5"/>
   </g>
   <g id="LineCollection_4">
    <path d="M 360.071015 293.496908 
L 360.071015 292.601312 
" clip-path="url(#p23d60bf4fa)" style="fill: none; stroke: #d62728; stroke-width: 1.5"/>
    <path d="M 269.845894 249.144096 
L 269.845894 245.520337 
" clip-path="url(#p23d60bf4fa)" style="fill: none; stroke: #d62728; stroke-width: 1.5"/>
    <path d="M 239.323562 223.861848 
L 239.323562 202.396935 
" clip-path="url(#p23d60bf4fa)" style="fill: none; stroke: #d62728; stroke-width: 1.5"/>
    <path d="M 220.455649 207.154801 
L 220.455649 123.229707 
" clip-path="url(#p23d60bf4fa)" style="fill: none; stroke: #d62728; stroke-width: 1.5"/>
    <path d="M 206.762264 200.529296 
L 206.762264 109.559158 
" clip-path="url(#p23d60bf4fa)" style="fill: none; stroke: #d62728; stroke-width: 1.5"/>
    <path d="M 196.007612 187.78206 
L 196.007612 92.873825 
" clip-path="url(#p23d60bf4fa)" style="fill: none; stroke: #d62728; stroke-width: 1.5"/>
    <path d="M 187.150532 171.278392 
L 187.150532 76.723285 
" clip-path="url(#p23d60bf4fa)" style="fill: none; stroke: #d62728; stroke-width: 1.5"/>
    <path d="M 179.620772 157.544992 
L 179.620772 68.0313 
" clip-path="url(#p23d60bf4fa)" style="fill: none; stroke: #d62728; stroke-width: 1.5"/>
    <path d="M 173.071869 144.327412 
L 173.071869 63.405936 
" clip-path="url(#p23d60bf4fa)" style="fill: none; stroke: #d62728; stroke-width: 1.5"/>
    <path d="M 167.277484 136.105418 
L 167.277484 60.413293 
" clip-path="url(#p23d60bf4fa)" style="fill: none; stroke: #d62728; stroke-width: 1.5"/>
    <path d="M 162.08158 127.239512 
L 162.08158 58.54338 
" clip-path="url(#p23d60bf4fa)" style="fill: none; stroke: #d62728; stroke-width: 1.5"/>
    <path d="M 157.372019 110.287722 
L 157.372019 59.55779 
" clip-path="url(#p23d60bf4fa)" style="fill: none; stroke: #d62728; stroke-width: 1.5"/>
    <path d="M 153.065499 98.169167 
L 153.065499 61.910648 
" clip-path="url(#p23d60bf4fa)" style="fill: none; stroke: #d62728; stroke-width: 1.5"/>
    <path d="M 149.09844 93.17356 
L 149.09844 61.092372 
" clip-path="url(#p23d60bf4fa)" style="fill: none; stroke: #d62728; stroke-width: 1.5"/>
    <path d="M 145.421216 87.070871 
L 145.421216 61.913226 
" clip-path="url(#p23d60bf4fa)" style="fill: none; stroke: #d62728; stroke-width: 1.5"/>
    <path d="M 141.994343 83.792619 
L 141.994343 61.454246 
" clip-path="url(#p23d60bf4fa)" style="fill: none; stroke: #d62728; stroke-width: 1.5"/>
    <path d="M 138.785895 81.976246 
L 138.785895 61.13521 
" clip-path="url(#p23d60bf4fa)" style="fill: none; stroke: #d62728; stroke-width: 1.5"/>
    <path d="M 135.769688 78.617681 
L 135.769688 62.185824 
" clip-path="url(#p23d60bf4fa)" style="fill: none; stroke: #d62728; stroke-width: 1.5"/>
    <path d="M 132.923982 77.28566 
L 132.923982 61.882459 
" clip-path="url(#p23d60bf4fa)" style="fill: none; stroke: #d62728; stroke-width: 1.5"/>
    <path d="M 130.230527 77.647176 
L 130.230527 61.483673 
" clip-path="url(#p23d60bf4fa)" style="fill: none; stroke: #d62728; stroke-width: 1.5"/>
   </g>
   <g id="LineCollection_5">
    <path d="M 374.473979 295.488 
L 374.473979 295.163337 
" clip-path="url(#p23d60bf4fa)" style="fill: none; stroke: #9467bd; stroke-width: 1.5"/>
    <path d="M 284.248857 265.285465 
L 284.248857 263.856324 
" clip-path="url(#p23d60bf4fa)" style="fill: none; stroke: #9467bd; stroke-width: 1.5"/>
    <path d="M 253.726526 250.386488 
L 253.726526 228.050393 
" clip-path="url(#p23d60bf4fa)" style="fill: none; stroke: #9467bd; stroke-width: 1.5"/>
    <path d="M 234.858613 216.843954 
L 234.858613 186.700213 
" clip-path="url(#p23d60bf4fa)" style="fill: none; stroke: #9467bd; stroke-width: 1.5"/>
    <path d="M 221.165228 216.049343 
L 221.165228 125.386692 
" clip-path="url(#p23d60bf4fa)" style="fill: none; stroke: #9467bd; stroke-width: 1.5"/>
    <path d="M 210.410576 201.041605 
L 210.410576 108.107912 
" clip-path="url(#p23d60bf4fa)" style="fill: none; stroke: #9467bd; stroke-width: 1.5"/>
    <path d="M 201.553496 194.296916 
L 201.553496 104.979329 
" clip-path="url(#p23d60bf4fa)" style="fill: none; stroke: #9467bd; stroke-width: 1.5"/>
    <path d="M 194.023736 189.206596 
L 194.023736 98.882705 
" clip-path="url(#p23d60bf4fa)" style="fill: none; stroke: #9467bd; stroke-width: 1.5"/>
    <path d="M 187.474833 186.908333 
L 187.474833 92.743614 
" clip-path="url(#p23d60bf4fa)" style="fill: none; stroke: #9467bd; stroke-width: 1.5"/>
    <path d="M 181.680448 182.95103 
L 181.680448 87.129489 
" clip-path="url(#p23d60bf4fa)" style="fill: none; stroke: #9467bd; stroke-width: 1.5"/>
    <path d="M 176.484544 169.640985 
L 176.484544 76.970439 
" clip-path="url(#p23d60bf4fa)" style="fill: none; stroke: #9467bd; stroke-width: 1.5"/>
    <path d="M 171.774983 145.886778 
L 171.774983 68.281911 
" clip-path="url(#p23d60bf4fa)" style="fill: none; stroke: #9467bd; stroke-width: 1.5"/>
    <path d="M 167.468463 136.78108 
L 167.468463 63.449536 
" clip-path="url(#p23d60bf4fa)" style="fill: none; stroke: #9467bd; stroke-width: 1.5"/>
    <path d="M 163.501404 124.954855 
L 163.501404 60.221123 
" clip-path="url(#p23d60bf4fa)" style="fill: none; stroke: #9467bd; stroke-width: 1.5"/>
    <path d="M 159.82418 110.022156 
L 159.82418 63.187459 
" clip-path="url(#p23d60bf4fa)" style="fill: none; stroke: #9467bd; stroke-width: 1.5"/>
    <path d="M 156.397307 98.232433 
L 156.397307 65.030144 
" clip-path="url(#p23d60bf4fa)" style="fill: none; stroke: #9467bd; stroke-width: 1.5"/>
    <path d="M 153.188859 84.312159 
L 153.188859 69.691287 
" clip-path="url(#p23d60bf4fa)" style="fill: none; stroke: #9467bd; stroke-width: 1.5"/>
    <path d="M 150.172652 83.299263 
L 150.172652 69.755219 
" clip-path="url(#p23d60bf4fa)" style="fill: none; stroke: #9467bd; stroke-width: 1.5"/>
    <path d="M 147.326946 79.733395 
L 147.326946 70.636065 
" clip-path="url(#p23d60bf4fa)" style="fill: none; stroke: #9467bd; stroke-width: 1.5"/>
    <path d="M 144.633491 79.268919 
L 144.633491 68.969439 
" clip-path="url(#p23d60bf4fa)" style="fill: none; stroke: #9467bd; stroke-width: 1.5"/>
   </g>
   <g id="LineCollection_6">
    <path d="M 224.565195 307.584 
L 224.565195 41.472 
" clip-path="url(#p23d60bf4fa)" style="fill: none; stroke: #0000ff; stroke-width: 1.5"/>
   </g>
   <g id="line2d_35">
    <defs>
     <path id="m4d81a6998a" d="M 0 2.5 
C 0.663008 2.5 1.29895 2.236584 1.767767 1.767767 
C 2.236584 1.29895 2.5 0.663008 2.5 0 
C 2.5 -0.663008 2.236584 -1.29895 1.767767 -1.767767 
C 1.29895 -2.236584 0.663008 -2.5 0 -2.5 
C -0.663008 -2.5 -1.29895 -2.236584 -1.767767 -1.767767 
C -2.236584 -1.29895 -2.5 -0.663008 -2.5 0 
C -2.5 0.663008 -2.236584 1.29895 -1.767767 1.767767 
C -1.29895 2.236584 -0.663008 2.5 0 2.5 
z
" style="stroke: #1f77b4"/>
    </defs>
    <g clip-path="url(#p23d60bf4fa)">
     <use xlink:href="#m4d81a6998a" x="305.412318" y="277.115276" style="fill: #1f77b4; stroke: #1f77b4"/>
     <use xlink:href="#m4d81a6998a" x="215.187197" y="163.112909" style="fill: #1f77b4; stroke: #1f77b4"/>
     <use xlink:href="#m4d81a6998a" x="184.664865" y="137.098297" style="fill: #1f77b4; stroke: #1f77b4"/>
     <use xlink:href="#m4d81a6998a" x="165.796952" y="116.035682" style="fill: #1f77b4; stroke: #1f77b4"/>
     <use xlink:href="#m4d81a6998a" x="152.103567" y="95.707161" style="fill: #1f77b4; stroke: #1f77b4"/>
     <use xlink:href="#m4d81a6998a" x="141.348915" y="87.18562" style="fill: #1f77b4; stroke: #1f77b4"/>
     <use xlink:href="#m4d81a6998a" x="132.491835" y="80.17217" style="fill: #1f77b4; stroke: #1f77b4"/>
     <use xlink:href="#m4d81a6998a" x="124.962075" y="75.600308" style="fill: #1f77b4; stroke: #1f77b4"/>
     <use xlink:href="#m4d81a6998a" x="118.413172" y="73.58649" style="fill: #1f77b4; stroke: #1f77b4"/>
     <use xlink:href="#m4d81a6998a" x="112.618787" y="73.07769" style="fill: #1f77b4; stroke: #1f77b4"/>
     <use xlink:href="#m4d81a6998a" x="107.422883" y="72.589972" style="fill: #1f77b4; stroke: #1f77b4"/>
     <use xlink:href="#m4d81a6998a" x="102.713322" y="73.061856" style="fill: #1f77b4; stroke: #1f77b4"/>
     <use xlink:href="#m4d81a6998a" x="98.406802" y="72.625369" style="fill: #1f77b4; stroke: #1f77b4"/>
     <use xlink:href="#m4d81a6998a" x="94.439744" y="73.199338" style="fill: #1f77b4; stroke: #1f77b4"/>
     <use xlink:href="#m4d81a6998a" x="90.762519" y="72.995954" style="fill: #1f77b4; stroke: #1f77b4"/>
     <use xlink:href="#m4d81a6998a" x="87.335646" y="73.578571" style="fill: #1f77b4; stroke: #1f77b4"/>
     <use xlink:href="#m4d81a6998a" x="84.127198" y="73.670705" style="fill: #1f77b4; stroke: #1f77b4"/>
     <use xlink:href="#m4d81a6998a" x="81.110992" y="75.21682" style="fill: #1f77b4; stroke: #1f77b4"/>
     <use xlink:href="#m4d81a6998a" x="78.265285" y="75.823449" style="fill: #1f77b4; stroke: #1f77b4"/>
     <use xlink:href="#m4d81a6998a" x="75.571831" y="74.426912" style="fill: #1f77b4; stroke: #1f77b4"/>
    </g>
   </g>
   <g id="line2d_36">
    <defs>
     <path id="md5c411243f" d="M 0 2.5 
C 0.663008 2.5 1.29895 2.236584 1.767767 1.767767 
C 2.236584 1.29895 2.5 0.663008 2.5 0 
C 2.5 -0.663008 2.236584 -1.29895 1.767767 -1.767767 
C 1.29895 -2.236584 0.663008 -2.5 0 -2.5 
C -0.663008 -2.5 -1.29895 -2.236584 -1.767767 -1.767767 
C -2.236584 -1.29895 -2.5 -0.663008 -2.5 0 
C -2.5 0.663008 -2.236584 1.29895 -1.767767 1.767767 
C -1.29895 2.236584 -0.663008 2.5 0 2.5 
z
" style="stroke: #ff7f0e"/>
    </defs>
    <g clip-path="url(#p23d60bf4fa)">
     <use xlink:href="#md5c411243f" x="324.832584" y="284.646439" style="fill: #ff7f0e; stroke: #ff7f0e"/>
     <use xlink:href="#md5c411243f" x="234.607462" y="199.352239" style="fill: #ff7f0e; stroke: #ff7f0e"/>
     <use xlink:href="#md5c411243f" x="204.085131" y="154.735966" style="fill: #ff7f0e; stroke: #ff7f0e"/>
     <use xlink:href="#md5c411243f" x="185.217217" y="131.365662" style="fill: #ff7f0e; stroke: #ff7f0e"/>
     <use xlink:href="#md5c411243f" x="171.523832" y="108.614603" style="fill: #ff7f0e; stroke: #ff7f0e"/>
     <use xlink:href="#md5c411243f" x="160.76918" y="94.865976" style="fill: #ff7f0e; stroke: #ff7f0e"/>
     <use xlink:href="#md5c411243f" x="151.912101" y="87.75443" style="fill: #ff7f0e; stroke: #ff7f0e"/>
     <use xlink:href="#md5c411243f" x="144.382341" y="80.524722" style="fill: #ff7f0e; stroke: #ff7f0e"/>
     <use xlink:href="#md5c411243f" x="137.833437" y="75.317646" style="fill: #ff7f0e; stroke: #ff7f0e"/>
     <use xlink:href="#md5c411243f" x="132.039052" y="72.588894" style="fill: #ff7f0e; stroke: #ff7f0e"/>
     <use xlink:href="#md5c411243f" x="126.843148" y="71.644068" style="fill: #ff7f0e; stroke: #ff7f0e"/>
     <use xlink:href="#md5c411243f" x="122.133588" y="71.638342" style="fill: #ff7f0e; stroke: #ff7f0e"/>
     <use xlink:href="#md5c411243f" x="117.827067" y="71.092755" style="fill: #ff7f0e; stroke: #ff7f0e"/>
     <use xlink:href="#md5c411243f" x="113.860009" y="70.539828" style="fill: #ff7f0e; stroke: #ff7f0e"/>
     <use xlink:href="#md5c411243f" x="110.182785" y="70.733599" style="fill: #ff7f0e; stroke: #ff7f0e"/>
     <use xlink:href="#md5c411243f" x="106.755912" y="70.920625" style="fill: #ff7f0e; stroke: #ff7f0e"/>
     <use xlink:href="#md5c411243f" x="103.547464" y="71.202515" style="fill: #ff7f0e; stroke: #ff7f0e"/>
     <use xlink:href="#md5c411243f" x="100.531257" y="71.331738" style="fill: #ff7f0e; stroke: #ff7f0e"/>
     <use xlink:href="#md5c411243f" x="97.685551" y="71.785755" style="fill: #ff7f0e; stroke: #ff7f0e"/>
     <use xlink:href="#md5c411243f" x="94.992096" y="72.5068" style="fill: #ff7f0e; stroke: #ff7f0e"/>
    </g>
   </g>
   <g id="line2d_37">
    <defs>
     <path id="m28919d5d04" d="M 0 2.5 
C 0.663008 2.5 1.29895 2.236584 1.767767 1.767767 
C 2.236584 1.29895 2.5 0.663008 2.5 0 
C 2.5 -0.663008 2.236584 -1.29895 1.767767 -1.767767 
C 1.29895 -2.236584 0.663008 -2.5 0 -2.5 
C -0.663008 -2.5 -1.29895 -2.236584 -1.767767 -1.767767 
C -2.236584 -1.29895 -2.5 -0.663008 -2.5 0 
C -2.5 0.663008 -2.236584 1.29895 -1.767767 1.767767 
C -1.29895 2.236584 -0.663008 2.5 0 2.5 
z
" style="stroke: #2ca02c"/>
    </defs>
    <g clip-path="url(#p23d60bf4fa)">
     <use xlink:href="#m28919d5d04" x="339.820042" y="288.448042" style="fill: #2ca02c; stroke: #2ca02c"/>
     <use xlink:href="#m28919d5d04" x="249.59492" y="233.30964" style="fill: #2ca02c; stroke: #2ca02c"/>
     <use xlink:href="#m28919d5d04" x="219.072589" y="166.970752" style="fill: #2ca02c; stroke: #2ca02c"/>
     <use xlink:href="#m28919d5d04" x="200.204675" y="151.883236" style="fill: #2ca02c; stroke: #2ca02c"/>
     <use xlink:href="#m28919d5d04" x="186.51129" y="136.957708" style="fill: #2ca02c; stroke: #2ca02c"/>
     <use xlink:href="#m28919d5d04" x="175.756638" y="125.015011" style="fill: #2ca02c; stroke: #2ca02c"/>
     <use xlink:href="#m28919d5d04" x="166.899559" y="108.316356" style="fill: #2ca02c; stroke: #2ca02c"/>
     <use xlink:href="#m28919d5d04" x="159.369799" y="94.855861" style="fill: #2ca02c; stroke: #2ca02c"/>
     <use xlink:href="#m28919d5d04" x="152.820895" y="90.062898" style="fill: #2ca02c; stroke: #2ca02c"/>
     <use xlink:href="#m28919d5d04" x="147.02651" y="83.940149" style="fill: #2ca02c; stroke: #2ca02c"/>
     <use xlink:href="#m28919d5d04" x="141.830606" y="78.461469" style="fill: #2ca02c; stroke: #2ca02c"/>
     <use xlink:href="#m28919d5d04" x="137.121046" y="74.787076" style="fill: #2ca02c; stroke: #2ca02c"/>
     <use xlink:href="#m28919d5d04" x="132.814525" y="72.559281" style="fill: #2ca02c; stroke: #2ca02c"/>
     <use xlink:href="#m28919d5d04" x="128.847467" y="71.805619" style="fill: #2ca02c; stroke: #2ca02c"/>
     <use xlink:href="#m28919d5d04" x="125.170243" y="70.82903" style="fill: #2ca02c; stroke: #2ca02c"/>
     <use xlink:href="#m28919d5d04" x="121.74337" y="70.457984" style="fill: #2ca02c; stroke: #2ca02c"/>
     <use xlink:href="#m28919d5d04" x="118.534922" y="69.845318" style="fill: #2ca02c; stroke: #2ca02c"/>
     <use xlink:href="#m28919d5d04" x="115.518715" y="70.249118" style="fill: #2ca02c; stroke: #2ca02c"/>
     <use xlink:href="#m28919d5d04" x="112.673009" y="69.980728" style="fill: #2ca02c; stroke: #2ca02c"/>
     <use xlink:href="#m28919d5d04" x="109.979554" y="70.286039" style="fill: #2ca02c; stroke: #2ca02c"/>
    </g>
   </g>
   <g id="line2d_38">
    <defs>
     <path id="m29ecc45ace" d="M 0 2.5 
C 0.663008 2.5 1.29895 2.236584 1.767767 1.767767 
C 2.236584 1.29895 2.5 0.663008 2.5 0 
C 2.5 -0.663008 2.236584 -1.29895 1.767767 -1.767767 
C 1.29895 -2.236584 0.663008 -2.5 0 -2.5 
C -0.663008 -2.5 -1.29895 -2.236584 -1.767767 -1.767767 
C -2.236584 -1.29895 -2.5 -0.663008 -2.5 0 
C -2.5 0.663008 -2.236584 1.29895 -1.767767 1.767767 
C -1.29895 2.236584 -0.663008 2.5 0 2.5 
z
" style="stroke: #d62728"/>
    </defs>
    <g clip-path="url(#p23d60bf4fa)">
     <use xlink:href="#m29ecc45ace" x="360.071015" y="293.04911" style="fill: #d62728; stroke: #d62728"/>
     <use xlink:href="#m29ecc45ace" x="269.845894" y="247.332216" style="fill: #d62728; stroke: #d62728"/>
     <use xlink:href="#m29ecc45ace" x="239.323562" y="213.129391" style="fill: #d62728; stroke: #d62728"/>
     <use xlink:href="#m29ecc45ace" x="220.455649" y="165.192254" style="fill: #d62728; stroke: #d62728"/>
     <use xlink:href="#m29ecc45ace" x="206.762264" y="155.044227" style="fill: #d62728; stroke: #d62728"/>
     <use xlink:href="#m29ecc45ace" x="196.007612" y="140.327942" style="fill: #d62728; stroke: #d62728"/>
     <use xlink:href="#m29ecc45ace" x="187.150532" y="124.000839" style="fill: #d62728; stroke: #d62728"/>
     <use xlink:href="#m29ecc45ace" x="179.620772" y="112.788146" style="fill: #d62728; stroke: #d62728"/>
     <use xlink:href="#m29ecc45ace" x="173.071869" y="103.866674" style="fill: #d62728; stroke: #d62728"/>
     <use xlink:href="#m29ecc45ace" x="167.277484" y="98.259356" style="fill: #d62728; stroke: #d62728"/>
     <use xlink:href="#m29ecc45ace" x="162.08158" y="92.891446" style="fill: #d62728; stroke: #d62728"/>
     <use xlink:href="#m29ecc45ace" x="157.372019" y="84.922756" style="fill: #d62728; stroke: #d62728"/>
     <use xlink:href="#m29ecc45ace" x="153.065499" y="80.039908" style="fill: #d62728; stroke: #d62728"/>
     <use xlink:href="#m29ecc45ace" x="149.09844" y="77.132966" style="fill: #d62728; stroke: #d62728"/>
     <use xlink:href="#m29ecc45ace" x="145.421216" y="74.492048" style="fill: #d62728; stroke: #d62728"/>
     <use xlink:href="#m29ecc45ace" x="141.994343" y="72.623432" style="fill: #d62728; stroke: #d62728"/>
     <use xlink:href="#m29ecc45ace" x="138.785895" y="71.555728" style="fill: #d62728; stroke: #d62728"/>
     <use xlink:href="#m29ecc45ace" x="135.769688" y="70.401752" style="fill: #d62728; stroke: #d62728"/>
     <use xlink:href="#m29ecc45ace" x="132.923982" y="69.58406" style="fill: #d62728; stroke: #d62728"/>
     <use xlink:href="#m29ecc45ace" x="130.230527" y="69.565424" style="fill: #d62728; stroke: #d62728"/>
    </g>
   </g>
   <g id="line2d_39">
    <defs>
     <path id="m9e52fa0410" d="M 0 2.5 
C 0.663008 2.5 1.29895 2.236584 1.767767 1.767767 
C 2.236584 1.29895 2.5 0.663008 2.5 0 
C 2.5 -0.663008 2.236584 -1.29895 1.767767 -1.767767 
C 1.29895 -2.236584 0.663008 -2.5 0 -2.5 
C -0.663008 -2.5 -1.29895 -2.236584 -1.767767 -1.767767 
C -2.236584 -1.29895 -2.5 -0.663008 -2.5 0 
C -2.5 0.663008 -2.236584 1.29895 -1.767767 1.767767 
C -1.29895 2.236584 -0.663008 2.5 0 2.5 
z
" style="stroke: #9467bd"/>
    </defs>
    <g clip-path="url(#p23d60bf4fa)">
     <use xlink:href="#m9e52fa0410" x="374.473979" y="295.325669" style="fill: #9467bd; stroke: #9467bd"/>
     <use xlink:href="#m9e52fa0410" x="284.248857" y="264.570895" style="fill: #9467bd; stroke: #9467bd"/>
     <use xlink:href="#m9e52fa0410" x="253.726526" y="239.218441" style="fill: #9467bd; stroke: #9467bd"/>
     <use xlink:href="#m9e52fa0410" x="234.858613" y="201.772083" style="fill: #9467bd; stroke: #9467bd"/>
     <use xlink:href="#m9e52fa0410" x="221.165228" y="170.718017" style="fill: #9467bd; stroke: #9467bd"/>
     <use xlink:href="#m9e52fa0410" x="210.410576" y="154.574759" style="fill: #9467bd; stroke: #9467bd"/>
     <use xlink:href="#m9e52fa0410" x="201.553496" y="149.638123" style="fill: #9467bd; stroke: #9467bd"/>
     <use xlink:href="#m9e52fa0410" x="194.023736" y="144.044651" style="fill: #9467bd; stroke: #9467bd"/>
     <use xlink:href="#m9e52fa0410" x="187.474833" y="139.825974" style="fill: #9467bd; stroke: #9467bd"/>
     <use xlink:href="#m9e52fa0410" x="181.680448" y="135.04026" style="fill: #9467bd; stroke: #9467bd"/>
     <use xlink:href="#m9e52fa0410" x="176.484544" y="123.305712" style="fill: #9467bd; stroke: #9467bd"/>
     <use xlink:href="#m9e52fa0410" x="171.774983" y="107.084344" style="fill: #9467bd; stroke: #9467bd"/>
     <use xlink:href="#m9e52fa0410" x="167.468463" y="100.115308" style="fill: #9467bd; stroke: #9467bd"/>
     <use xlink:href="#m9e52fa0410" x="163.501404" y="92.587989" style="fill: #9467bd; stroke: #9467bd"/>
     <use xlink:href="#m9e52fa0410" x="159.82418" y="86.604807" style="fill: #9467bd; stroke: #9467bd"/>
     <use xlink:href="#m9e52fa0410" x="156.397307" y="81.631288" style="fill: #9467bd; stroke: #9467bd"/>
     <use xlink:href="#m9e52fa0410" x="153.188859" y="77.001723" style="fill: #9467bd; stroke: #9467bd"/>
     <use xlink:href="#m9e52fa0410" x="150.172652" y="76.527241" style="fill: #9467bd; stroke: #9467bd"/>
     <use xlink:href="#m9e52fa0410" x="147.326946" y="75.18473" style="fill: #9467bd; stroke: #9467bd"/>
     <use xlink:href="#m9e52fa0410" x="144.633491" y="74.119179" style="fill: #9467bd; stroke: #9467bd"/>
    </g>
   </g>
   <g id="patch_3">
    <path d="M 57.6 307.584 
L 57.6 41.472 
" style="fill: none; stroke: #000000; stroke-width: 0.8; stroke-linejoin: miter; stroke-linecap: square"/>
   </g>
   <g id="patch_4">
    <path d="M 414.72 307.584 
L 414.72 41.472 
" style="fill: none; stroke: #000000; stroke-width: 0.8; stroke-linejoin: miter; stroke-linecap: square"/>
   </g>
   <g id="patch_5">
    <path d="M 57.6 307.584 
L 414.72 307.584 
" style="fill: none; stroke: #000000; stroke-width: 0.8; stroke-linejoin: miter; stroke-linecap: square"/>
   </g>
   <g id="patch_6">
    <path d="M 57.6 41.472 
L 414.72 41.472 
" style="fill: none; stroke: #000000; stroke-width: 0.8; stroke-linejoin: miter; stroke-linecap: square"/>
   </g>
   <g id="legend_1">
    <g id="patch_7">
     <path d="M 282.88875 152.218875 
L 407.72 152.218875 
Q 409.72 152.218875 409.72 150.218875 
L 409.72 48.472 
Q 409.72 46.472 407.72 46.472 
L 282.88875 46.472 
Q 280.88875 46.472 280.88875 48.472 
L 280.88875 150.218875 
Q 280.88875 152.218875 282.88875 152.218875 
z
" style="fill: #ffffff; opacity: 0.8; stroke: #cccccc; stroke-linejoin: miter"/>
    </g>
    <g id="line2d_40">
     <path d="M 284.88875 54.570438 
L 294.88875 54.570438 
L 304.88875 54.570438 
" style="fill: none; stroke: #8c564b; stroke-width: 1.5; stroke-linecap: square"/>
    </g>
    <g id="text_12">
     <!-- fit -->
     <g transform="translate(312.88875 58.070438) scale(0.1 -0.1)">
      <defs>
       <path id="DejaVuSans-66" d="M 2375 4863 
L 2375 4384 
L 1825 4384 
Q 1516 4384 1395 4259 
Q 1275 4134 1275 3809 
L 1275 3500 
L 2222 3500 
L 2222 3053 
L 1275 3053 
L 1275 0 
L 697 0 
L 697 3053 
L 147 3053 
L 147 3500 
L 697 3500 
L 697 3744 
Q 697 4328 969 4595 
Q 1241 4863 1831 4863 
L 2375 4863 
z
" transform="scale(0.015625)"/>
       <path id="DejaVuSans-74" d="M 1172 4494 
L 1172 3500 
L 2356 3500 
L 2356 3053 
L 1172 3053 
L 1172 1153 
Q 1172 725 1289 603 
Q 1406 481 1766 481 
L 2356 481 
L 2356 0 
L 1766 0 
Q 1100 0 847 248 
Q 594 497 594 1153 
L 594 3053 
L 172 3053 
L 172 3500 
L 594 3500 
L 594 4494 
L 1172 4494 
z
" transform="scale(0.015625)"/>
      </defs>
      <use xlink:href="#DejaVuSans-66"/>
      <use xlink:href="#DejaVuSans-69" x="35.205078"/>
      <use xlink:href="#DejaVuSans-74" x="62.988281"/>
     </g>
    </g>
    <g id="line2d_41">
     <path d="M 284.88875 69.248563 
L 304.88875 69.248563 
" style="fill: none; stroke: #0000ff; stroke-width: 1.5"/>
    </g>
    <g id="text_13">
     <!-- Nyquist Frequency -->
     <g transform="translate(312.88875 72.748563) scale(0.1 -0.1)">
      <defs>
       <path id="DejaVuSans-4e" d="M 628 4666 
L 1478 4666 
L 3547 763 
L 3547 4666 
L 4159 4666 
L 4159 0 
L 3309 0 
L 1241 3903 
L 1241 0 
L 628 0 
L 628 4666 
z
" transform="scale(0.015625)"/>
       <path id="DejaVuSans-79" d="M 2059 -325 
Q 1816 -950 1584 -1140 
Q 1353 -1331 966 -1331 
L 506 -1331 
L 506 -850 
L 844 -850 
Q 1081 -850 1212 -737 
Q 1344 -625 1503 -206 
L 1606 56 
L 191 3500 
L 800 3500 
L 1894 763 
L 2988 3500 
L 3597 3500 
L 2059 -325 
z
" transform="scale(0.015625)"/>
       <path id="DejaVuSans-71" d="M 947 1747 
Q 947 1113 1208 752 
Q 1469 391 1925 391 
Q 2381 391 2643 752 
Q 2906 1113 2906 1747 
Q 2906 2381 2643 2742 
Q 2381 3103 1925 3103 
Q 1469 3103 1208 2742 
Q 947 2381 947 1747 
z
M 2906 525 
Q 2725 213 2448 61 
Q 2172 -91 1784 -91 
Q 1150 -91 751 415 
Q 353 922 353 1747 
Q 353 2572 751 3078 
Q 1150 3584 1784 3584 
Q 2172 3584 2448 3432 
Q 2725 3281 2906 2969 
L 2906 3500 
L 3481 3500 
L 3481 -1331 
L 2906 -1331 
L 2906 525 
z
" transform="scale(0.015625)"/>
       <path id="DejaVuSans-75" d="M 544 1381 
L 544 3500 
L 1119 3500 
L 1119 1403 
Q 1119 906 1312 657 
Q 1506 409 1894 409 
Q 2359 409 2629 706 
Q 2900 1003 2900 1516 
L 2900 3500 
L 3475 3500 
L 3475 0 
L 2900 0 
L 2900 538 
Q 2691 219 2414 64 
Q 2138 -91 1772 -91 
Q 1169 -91 856 284 
Q 544 659 544 1381 
z
M 1991 3584 
L 1991 3584 
z
" transform="scale(0.015625)"/>
       <path id="DejaVuSans-46" d="M 628 4666 
L 3309 4666 
L 3309 4134 
L 1259 4134 
L 1259 2759 
L 3109 2759 
L 3109 2228 
L 1259 2228 
L 1259 0 
L 628 0 
L 628 4666 
z
" transform="scale(0.015625)"/>
       <path id="DejaVuSans-63" d="M 3122 3366 
L 3122 2828 
Q 2878 2963 2633 3030 
Q 2388 3097 2138 3097 
Q 1578 3097 1268 2742 
Q 959 2388 959 1747 
Q 959 1106 1268 751 
Q 1578 397 2138 397 
Q 2388 397 2633 464 
Q 2878 531 3122 666 
L 3122 134 
Q 2881 22 2623 -34 
Q 2366 -91 2075 -91 
Q 1284 -91 818 406 
Q 353 903 353 1747 
Q 353 2603 823 3093 
Q 1294 3584 2113 3584 
Q 2378 3584 2631 3529 
Q 2884 3475 3122 3366 
z
" transform="scale(0.015625)"/>
      </defs>
      <use xlink:href="#DejaVuSans-4e"/>
      <use xlink:href="#DejaVuSans-79" x="74.804688"/>
      <use xlink:href="#DejaVuSans-71" x="133.984375"/>
      <use xlink:href="#DejaVuSans-75" x="197.460938"/>
      <use xlink:href="#DejaVuSans-69" x="260.839844"/>
      <use xlink:href="#DejaVuSans-73" x="288.623047"/>
      <use xlink:href="#DejaVuSans-74" x="340.722656"/>
      <use xlink:href="#DejaVuSans-20" x="379.931641"/>
      <use xlink:href="#DejaVuSans-46" x="411.71875"/>
      <use xlink:href="#DejaVuSans-72" x="461.988281"/>
      <use xlink:href="#DejaVuSans-65" x="500.851562"/>
      <use xlink:href="#DejaVuSans-71" x="562.375"/>
      <use xlink:href="#DejaVuSans-75" x="625.851562"/>
      <use xlink:href="#DejaVuSans-65" x="689.230469"/>
      <use xlink:href="#DejaVuSans-6e" x="750.753906"/>
      <use xlink:href="#DejaVuSans-63" x="814.132812"/>
      <use xlink:href="#DejaVuSans-79" x="869.113281"/>
     </g>
    </g>
    <g id="LineCollection_7">
     <path d="M 294.88875 88.926688 
L 294.88875 78.926688 
" style="fill: none; stroke: #1f77b4; stroke-width: 1.5"/>
    </g>
    <g id="line2d_42"/>
    <g id="line2d_43">
     <g>
      <use xlink:href="#m4d81a6998a" x="294.88875" y="83.926688" style="fill: #1f77b4; stroke: #1f77b4"/>
     </g>
    </g>
    <g id="text_14">
     <!-- 0.10 -->
     <g transform="translate(312.88875 87.426688) scale(0.1 -0.1)">
      <defs>
       <path id="DejaVuSans-2e" d="M 684 794 
L 1344 794 
L 1344 0 
L 684 0 
L 684 794 
z
" transform="scale(0.015625)"/>
      </defs>
      <use xlink:href="#DejaVuSans-30"/>
      <use xlink:href="#DejaVuSans-2e" x="63.623047"/>
      <use xlink:href="#DejaVuSans-31" x="95.410156"/>
      <use xlink:href="#DejaVuSans-30" x="159.033203"/>
     </g>
    </g>
    <g id="LineCollection_8">
     <path d="M 294.88875 103.604813 
L 294.88875 93.604813 
" style="fill: none; stroke: #ff7f0e; stroke-width: 1.5"/>
    </g>
    <g id="line2d_44"/>
    <g id="line2d_45">
     <g>
      <use xlink:href="#md5c411243f" x="294.88875" y="98.604813" style="fill: #ff7f0e; stroke: #ff7f0e"/>
     </g>
    </g>
    <g id="text_15">
     <!-- 0.15 -->
     <g transform="translate(312.88875 102.104813) scale(0.1 -0.1)">
      <use xlink:href="#DejaVuSans-30"/>
      <use xlink:href="#DejaVuSans-2e" x="63.623047"/>
      <use xlink:href="#DejaVuSans-31" x="95.410156"/>
      <use xlink:href="#DejaVuSans-35" x="159.033203"/>
     </g>
    </g>
    <g id="LineCollection_9">
     <path d="M 294.88875 118.282938 
L 294.88875 108.282938 
" style="fill: none; stroke: #2ca02c; stroke-width: 1.5"/>
    </g>
    <g id="line2d_46"/>
    <g id="line2d_47">
     <g>
      <use xlink:href="#m28919d5d04" x="294.88875" y="113.282938" style="fill: #2ca02c; stroke: #2ca02c"/>
     </g>
    </g>
    <g id="text_16">
     <!-- 0.20 -->
     <g transform="translate(312.88875 116.782938) scale(0.1 -0.1)">
      <use xlink:href="#DejaVuSans-30"/>
      <use xlink:href="#DejaVuSans-2e" x="63.623047"/>
      <use xlink:href="#DejaVuSans-32" x="95.410156"/>
      <use xlink:href="#DejaVuSans-30" x="159.033203"/>
     </g>
    </g>
    <g id="LineCollection_10">
     <path d="M 294.88875 132.961063 
L 294.88875 122.961063 
" style="fill: none; stroke: #d62728; stroke-width: 1.5"/>
    </g>
    <g id="line2d_48"/>
    <g id="line2d_49">
     <g>
      <use xlink:href="#m29ecc45ace" x="294.88875" y="127.961063" style="fill: #d62728; stroke: #d62728"/>
     </g>
    </g>
    <g id="text_17">
     <!-- 0.29 -->
     <g transform="translate(312.88875 131.461063) scale(0.1 -0.1)">
      <defs>
       <path id="DejaVuSans-39" d="M 703 97 
L 703 672 
Q 941 559 1184 500 
Q 1428 441 1663 441 
Q 2288 441 2617 861 
Q 2947 1281 2994 2138 
Q 2813 1869 2534 1725 
Q 2256 1581 1919 1581 
Q 1219 1581 811 2004 
Q 403 2428 403 3163 
Q 403 3881 828 4315 
Q 1253 4750 1959 4750 
Q 2769 4750 3195 4129 
Q 3622 3509 3622 2328 
Q 3622 1225 3098 567 
Q 2575 -91 1691 -91 
Q 1453 -91 1209 -44 
Q 966 3 703 97 
z
M 1959 2075 
Q 2384 2075 2632 2365 
Q 2881 2656 2881 3163 
Q 2881 3666 2632 3958 
Q 2384 4250 1959 4250 
Q 1534 4250 1286 3958 
Q 1038 3666 1038 3163 
Q 1038 2656 1286 2365 
Q 1534 2075 1959 2075 
z
" transform="scale(0.015625)"/>
      </defs>
      <use xlink:href="#DejaVuSans-30"/>
      <use xlink:href="#DejaVuSans-2e" x="63.623047"/>
      <use xlink:href="#DejaVuSans-32" x="95.410156"/>
      <use xlink:href="#DejaVuSans-39" x="159.033203"/>
     </g>
    </g>
    <g id="LineCollection_11">
     <path d="M 294.88875 147.639188 
L 294.88875 137.639188 
" style="fill: none; stroke: #9467bd; stroke-width: 1.5"/>
    </g>
    <g id="line2d_50"/>
    <g id="line2d_51">
     <g>
      <use xlink:href="#m9e52fa0410" x="294.88875" y="142.639188" style="fill: #9467bd; stroke: #9467bd"/>
     </g>
    </g>
    <g id="text_18">
     <!-- 0.39 -->
     <g transform="translate(312.88875 146.139188) scale(0.1 -0.1)">
      <defs>
       <path id="DejaVuSans-33" d="M 2597 2516 
Q 3050 2419 3304 2112 
Q 3559 1806 3559 1356 
Q 3559 666 3084 287 
Q 2609 -91 1734 -91 
Q 1441 -91 1130 -33 
Q 819 25 488 141 
L 488 750 
Q 750 597 1062 519 
Q 1375 441 1716 441 
Q 2309 441 2620 675 
Q 2931 909 2931 1356 
Q 2931 1769 2642 2001 
Q 2353 2234 1838 2234 
L 1294 2234 
L 1294 2753 
L 1863 2753 
Q 2328 2753 2575 2939 
Q 2822 3125 2822 3475 
Q 2822 3834 2567 4026 
Q 2313 4219 1838 4219 
Q 1578 4219 1281 4162 
Q 984 4106 628 3988 
L 628 4550 
Q 988 4650 1302 4700 
Q 1616 4750 1894 4750 
Q 2613 4750 3031 4423 
Q 3450 4097 3450 3541 
Q 3450 3153 3228 2886 
Q 3006 2619 2597 2516 
z
" transform="scale(0.015625)"/>
      </defs>
      <use xlink:href="#DejaVuSans-30"/>
      <use xlink:href="#DejaVuSans-2e" x="63.623047"/>
      <use xlink:href="#DejaVuSans-33" x="95.410156"/>
      <use xlink:href="#DejaVuSans-39" x="159.033203"/>
     </g>
    </g>
   </g>
   <g id="line2d_52">
    <path d="M 73.832727 65.195911 
L 77.112066 65.468594 
L 80.391405 65.769365 
L 83.670744 66.101032 
L 86.950083 66.466661 
L 90.229421 66.869601 
L 93.50876 67.313506 
L 96.788099 67.80235 
L 100.067438 68.340452 
L 103.346777 68.9325 
L 106.626116 69.583565 
L 109.905455 70.299125 
L 113.184793 71.085077 
L 116.464132 71.947755 
L 119.743471 72.89394 
L 123.02281 73.930857 
L 126.302149 75.066183 
L 129.581488 76.308027 
L 132.860826 77.664915 
L 136.140165 79.145753 
L 139.419504 80.759781 
L 142.698843 82.516506 
L 145.978182 84.42562 
L 149.257521 86.496898 
L 152.53686 88.740063 
L 155.816198 91.16464 
L 159.095537 93.779773 
L 162.374876 96.594024 
L 165.654215 99.615143 
L 168.933554 102.849819 
L 172.212893 106.303411 
L 175.492231 109.979668 
L 178.77157 113.880448 
L 182.050909 118.005438 
L 185.330248 122.351899 
L 188.609587 126.914435 
L 191.888926 131.684819 
L 195.168264 136.651866 
L 198.447603 141.801391 
L 201.726942 147.116241 
L 205.006281 152.57643 
L 208.28562 158.159364 
L 211.564959 163.840157 
L 214.844298 169.592045 
L 218.123636 175.386867 
L 221.402975 181.195602 
L 224.682314 186.988955 
L 227.961653 192.737935 
L 231.240992 198.414439 
L 234.520331 203.991784 
L 237.799669 209.445194 
L 241.079008 214.752196 
L 244.358347 219.892941 
L 247.637686 224.850426 
L 250.917025 229.610614 
L 254.196364 234.162472 
L 257.475702 238.497917 
L 260.755041 242.611692 
L 264.03438 246.501186 
L 267.313719 250.166201 
L 270.593058 253.608696 
L 273.872397 256.832508 
L 277.151736 259.843069 
L 280.431074 262.647129 
L 283.710413 265.252482 
L 286.989752 267.667727 
L 290.269091 269.902032 
L 293.54843 271.964933 
L 296.827769 273.866163 
L 300.107107 275.615492 
L 303.386446 277.222606 
L 306.665785 278.697002 
L 309.945124 280.047904 
L 313.224463 281.284199 
L 316.503802 282.414394 
L 319.78314 283.446576 
L 323.062479 284.388398 
L 326.341818 285.247066 
L 329.621157 286.029336 
L 332.900496 286.741519 
L 336.179835 287.389494 
L 339.459174 287.978715 
L 342.738512 288.514235 
L 346.017851 289.000722 
L 349.29719 289.442478 
L 352.576529 289.843461 
L 355.855868 290.207307 
L 359.135207 290.537351 
L 362.414545 290.836647 
L 365.693884 291.107989 
L 368.973223 291.35393 
L 372.252562 291.576799 
L 375.531901 291.778723 
L 378.81124 291.961637 
L 382.090579 292.127304 
L 385.369917 292.277329 
L 388.649256 292.413171 
L 391.928595 292.536157 
L 395.207934 292.64749 
L 398.487273 292.748266 
" clip-path="url(#p23d60bf4fa)" style="fill: none; stroke: #8c564b; stroke-width: 1.5; stroke-linecap: square"/>
   </g>
  </g>
 </g>
 <defs>
  <clipPath id="p23d60bf4fa">
   <rect x="57.6" y="41.472" width="357.12" height="266.112"/>
  </clipPath>
 </defs>
</svg>
